<?xml version="1.0" standalone="no"?>
<!DOCTYPE svg PUBLIC "-//W3C//DTD SVG 20010904//EN"
 "http://www.w3.org/TR/2001/REC-SVG-20010904/DTD/svg10.dtd">
<svg version="1.0" xmlns="http://www.w3.org/2000/svg"
 width="512.000000pt" height="512.000000pt" viewBox="0 0 512.000000 512.000000"
 preserveAspectRatio="xMidYMid meet">

<g transform="translate(0.000000,512.000000) scale(0.100000,-0.100000)"
fill="#ffffff" stroke="none">
<path d="M2800 5106 c-51 -15 -291 -112 -520 -211 -85 -37 -177 -76 -205 -88
-121 -51 -524 -260 -567 -294 -27 -22 -60 -63 -79 -97 -108 -200 24 -443 252
-463 75 -7 136 10 219 59 56 34 224 118 355 178 22 10 75 34 118 54 44 20 81
36 83 36 2 0 23 9 47 19 23 11 114 49 202 86 88 36 204 84 257 107 114 47 162
88 204 174 56 115 32 263 -59 356 -74 75 -210 112 -307 84z m130 -211 c32 -17
60 -61 60 -95 0 -33 -28 -78 -58 -94 -15 -7 -112 -48 -217 -91 -365 -148 -777
-337 -916 -421 -76 -46 -119 -46 -165 0 -27 27 -34 42 -34 73 0 21 7 48 15 60
36 51 400 231 845 418 435 183 417 178 470 150z"/>
<path d="M3435 4466 c-58 -17 -533 -188 -650 -235 -475 -192 -617 -254 -895
-391 -260 -130 -477 -264 -531 -329 -54 -66 -73 -118 -73 -206 0 -86 16 -131
75 -206 41 -53 137 -100 215 -107 88 -7 146 15 282 105 272 180 864 440 1602
704 113 41 225 87 250 104 83 55 140 190 125 294 -8 57 -43 135 -79 178 -65
77 -215 119 -321 89z m135 -211 c32 -17 60 -61 60 -95 0 -29 -26 -77 -48 -89
-10 -5 -112 -43 -228 -85 -771 -275 -1341 -531 -1659 -746 -73 -49 -118 -53
-164 -14 -39 32 -49 80 -27 126 39 82 427 295 923 506 366 156 1040 411 1091
412 13 0 36 -7 52 -15z"/>
<path d="M3465 3620 c-103 -21 -689 -241 -1112 -418 -265 -111 -604 -278 -773
-382 -8 -5 -43 -26 -77 -46 -35 -21 -89 -63 -121 -94 -49 -47 -62 -67 -81
-128 -53 -164 7 -284 219 -442 36 -27 92 -71 100 -80 3 -3 25 -21 50 -40 46
-36 63 -49 108 -87 15 -13 30 -23 34 -23 4 0 8 -88 8 -195 l-1 -195 -24 0
c-13 0 -37 -11 -52 -24 l-28 -24 -3 -414 c-4 -466 -1 -491 68 -596 46 -70 298
-318 360 -354 106 -61 157 -71 385 -76 353 -7 411 15 640 240 83 81 164 170
182 200 61 100 64 130 61 586 -3 388 -4 411 -22 431 -11 12 -33 25 -50 29
l-31 8 -1 220 c-1 120 1 224 3 231 5 13 131 92 298 188 119 68 167 111 203
185 23 46 27 68 26 135 0 66 -5 90 -27 137 -51 104 -147 167 -268 176 -90 6
-133 -10 -314 -116 -422 -249 -475 -287 -523 -377 l-27 -50 -5 -365 -5 -365
-105 0 -105 0 -5 310 c-4 208 -9 319 -17 337 -28 64 -71 112 -164 184 -54 43
-99 81 -99 86 0 12 188 100 430 203 285 121 491 200 884 341 201 72 230 88
281 147 75 87 92 225 43 338 -52 122 -211 205 -343 179z m125 -237 c62 -56 40
-151 -40 -180 -735 -263 -1087 -406 -1468 -595 -121 -60 -189 -99 -200 -116
-21 -31 -21 -93 -2 -117 8 -10 85 -74 170 -142 85 -68 163 -136 172 -151 16
-24 18 -58 18 -309 l0 -283 -110 0 -110 0 0 239 c0 213 -2 241 -17 259 -10 11
-120 101 -244 200 -124 98 -235 192 -248 208 -33 41 -24 98 21 139 82 75 416
258 730 399 392 176 1181 475 1255 476 33 0 50 -6 73 -27z m-12 -839 c55 -38
65 -119 19 -162 -12 -11 -87 -59 -167 -105 -260 -152 -304 -181 -322 -217 -15
-29 -17 -68 -17 -289 0 -141 -1 -262 -1 -268 0 -10 -28 -13 -105 -13 l-105 0
0 339 c0 326 1 339 21 364 21 28 187 135 434 279 159 93 197 104 243 72z
m-378 -1369 l0 -105 -27 0 c-37 -1 -1224 -1 -1240 0 -10 0 -13 28 -13 105 l0
105 640 0 640 0 0 -105z m0 -426 l0 -109 -640 0 -640 0 0 110 0 111 640 -2
640 -1 0 -109z m-160 -327 c0 -22 -153 -154 -207 -180 -58 -27 -60 -27 -273
-27 l-215 0 -65 32 c-44 22 -89 57 -140 108 l-74 75 487 0 c268 0 487 -4 487
-8z"/>
</g>
</svg>
