<?xml version="1.0" standalone="no"?>
<!DOCTYPE svg PUBLIC "-//W3C//DTD SVG 20010904//EN"
 "http://www.w3.org/TR/2001/REC-SVG-20010904/DTD/svg10.dtd">
<svg version="1.0" xmlns="http://www.w3.org/2000/svg"
 width="512.000000pt" height="512.000000pt" viewBox="0 0 512.000000 512.000000"
 preserveAspectRatio="xMidYMid meet">

<g transform="translate(0.000000,512.000000) scale(0.100000,-0.100000)"
fill="#ffffff" stroke="none">
<path d="M2453 4622 c-63 -23 -127 -66 -158 -107 -19 -25 -321 -496 -730
-1140 -56 -88 -254 -398 -440 -690 -186 -291 -467 -732 -625 -980 -158 -247
-323 -507 -368 -577 -125 -195 -126 -199 -127 -303 0 -77 4 -98 26 -145 33
-70 95 -132 167 -167 l57 -28 2305 0 2305 0 55 26 c152 72 236 256 185 408
-10 30 -134 235 -293 484 -151 238 -321 504 -377 592 -56 88 -254 399 -440
690 -358 562 -534 838 -924 1450 -134 209 -255 393 -269 408 -76 81 -241 118
-349 79z m183 -161 c23 -10 53 -34 67 -52 14 -19 176 -270 359 -559 184 -289
471 -739 638 -1000 569 -892 743 -1165 848 -1330 57 -91 172 -270 255 -399
135 -211 151 -240 155 -286 7 -82 -34 -148 -111 -180 -32 -13 -284 -15 -2289
-15 -2172 0 -2254 1 -2294 19 -107 49 -134 173 -62 283 33 49 503 785 743
1163 526 828 1452 2277 1472 2304 30 39 93 71 143 71 19 0 54 -9 76 -19z"/>
<path d="M2512 4388 c-12 -6 -78 -99 -151 -212 -148 -231 -356 -558 -1181
-1851 -326 -511 -671 -1052 -766 -1201 -109 -171 -174 -281 -174 -297 0 -39
21 -77 51 -93 42 -21 4496 -21 4538 0 30 16 51 54 51 93 0 16 -65 126 -173
297 -160 249 -585 915 -1140 1786 -989 1550 -933 1465 -962 1478 -31 14 -62
14 -93 0z m315 -615 c143 -225 469 -736 725 -1138 256 -401 612 -959 791
-1240 l325 -510 -1054 -3 c-580 -1 -1529 -1 -2109 0 l-1055 3 59 90 c32 50
206 322 386 605 466 731 635 996 950 1490 153 239 374 587 492 773 118 185
219 337 223 337 4 0 124 -183 267 -407z"/>
<path d="M2604 3108 c-25 -12 -515 -904 -522 -949 -3 -20 3 -35 21 -53 l26
-26 346 0 c190 0 345 -3 345 -6 0 -12 -315 -584 -321 -584 -4 0 -10 12 -14 28
-10 42 -31 69 -61 76 -38 10 -80 -10 -95 -45 -11 -27 -7 -45 35 -174 48 -148
65 -175 111 -175 42 0 290 90 308 111 39 48 7 122 -54 123 -19 0 -45 -3 -58
-8 l-24 -8 30 53 c136 243 363 670 363 682 0 25 -21 65 -39 74 -9 4 -170 10
-359 13 l-342 5 210 385 c115 212 210 395 210 407 0 35 -11 53 -41 68 -32 17
-46 18 -75 3z"/>
</g>
</svg>
