<?xml version="1.0" standalone="no"?>
<!DOCTYPE svg PUBLIC "-//W3C//DTD SVG 20010904//EN"
 "http://www.w3.org/TR/2001/REC-SVG-20010904/DTD/svg10.dtd">
<svg version="1.0" xmlns="http://www.w3.org/2000/svg"
 width="512.000000pt" height="512.000000pt" viewBox="0 0 512.000000 512.000000"
 preserveAspectRatio="xMidYMid meet">

<g transform="translate(0.000000,512.000000) scale(0.100000,-0.100000)"
fill="#ffffff" stroke="none">
<path d="M260 5031 c-69 -21 -121 -65 -156 -131 -18 -34 -19 -110 -19 -2340
l0 -2305 22 -40 c25 -47 64 -85 113 -111 34 -18 89 -19 1460 -19 l1425 0 41
22 c44 24 98 79 109 112 6 20 13 21 248 21 269 0 391 13 522 56 327 108 588
361 706 684 65 179 62 133 66 1067 4 844 4 852 24 858 33 11 88 65 112 109 21
40 22 53 25 394 l3 352 39 0 40 0 0 80 0 80 -40 0 -40 0 0 280 0 280 -80 0
-80 0 0 280 0 280 -80 0 -80 0 0 -280 0 -280 -80 0 -80 0 0 -280 0 -280 -40 0
-40 0 0 -80 0 -80 40 0 39 0 3 -352 c3 -341 4 -354 25 -394 24 -44 79 -98 112
-109 21 -6 21 -6 21 -823 0 -759 -2 -823 -19 -907 -64 -309 -274 -572 -552
-692 -159 -69 -205 -76 -511 -81 l-278 -4 0 240 0 239 133 6 c95 3 150 11 198
26 163 52 305 193 362 360 22 66 22 69 25 848 3 776 3 782 23 788 33 11 88 65
112 109 21 40 22 53 25 394 l3 352 39 0 40 0 0 80 0 80 -40 0 -40 0 0 280 0
280 -80 0 -80 0 0 280 0 280 -80 0 -80 0 0 -280 0 -280 -80 0 -80 0 0 -280 0
-280 -40 0 -40 0 0 -80 0 -80 40 0 39 0 3 -352 c3 -341 4 -354 25 -394 24 -44
79 -98 112 -109 21 -6 21 -7 21 -765 0 -728 -1 -760 -20 -821 -37 -119 -140
-222 -259 -259 -47 -15 -91 -20 -172 -20 l-109 0 -2 1913 c-3 1844 -4 1913
-22 1947 -26 49 -64 88 -111 113 l-40 22 -1410 2 c-776 1 -1421 -2 -1435 -6z
m2835 -176 l25 -24 0 -2271 0 -2271 -25 -24 -24 -25 -1391 0 -1391 0 -24 25
-25 24 0 2271 0 2271 25 24 24 25 1391 0 1391 0 24 -25z m905 -735 l0 -200
-80 0 -80 0 0 200 0 200 80 0 80 0 0 -200z m800 0 l0 -200 -80 0 -80 0 0 200
0 200 80 0 80 0 0 -200z m-800 -695 l0 -336 -25 -24 c-15 -16 -36 -25 -55 -25
-19 0 -40 9 -55 25 l-25 24 0 336 0 335 80 0 80 0 0 -335z m800 0 l0 -336 -25
-24 c-15 -16 -36 -25 -55 -25 -19 0 -40 9 -55 25 l-25 24 0 336 0 335 80 0 80
0 0 -335z"/>
<path d="M560 3920 l0 -560 1120 0 1120 0 0 560 0 560 -1120 0 -1120 0 0 -560z
m2080 0 l0 -400 -960 0 -960 0 0 400 0 400 960 0 960 0 0 -400z"/>
<path d="M880 3920 l0 -240 80 0 80 0 0 240 0 240 -80 0 -80 0 0 -240z"/>
<path d="M1200 3920 l0 -240 80 0 80 0 0 240 0 240 -80 0 -80 0 0 -240z"/>
<path d="M1520 4080 l0 -80 80 0 80 0 0 80 0 80 -80 0 -80 0 0 -80z"/>
<path d="M2320 4080 l0 -80 80 0 80 0 0 80 0 80 -80 0 -80 0 0 -80z"/>
<path d="M2320 3760 l0 -80 80 0 80 0 0 80 0 80 -80 0 -80 0 0 -80z"/>
<path d="M1600 2960 l0 -80 80 0 80 0 0 80 0 80 -80 0 -80 0 0 -80z"/>
<path d="M1533 2786 c-585 -112 -899 -727 -638 -1251 114 -230 301 -386 550
-461 76 -22 110 -27 220 -28 168 -1 254 18 400 89 232 114 384 296 461 551 23
78 27 107 27 229 1 167 -18 249 -88 391 -112 229 -302 386 -552 460 -109 32
-273 40 -380 20z m291 -161 c38 -8 89 -22 114 -32 l44 -16 -479 -479 -478
-478 -17 40 c-53 124 -61 327 -18 465 39 125 86 202 185 301 77 78 104 98 185
137 152 73 311 94 464 62z m-81 -767 l-508 -508 -57 57 c-32 32 -58 62 -58 68
0 5 226 236 502 512 l503 503 62 -62 63 -63 -507 -507z m643 199 c32 -157 6
-328 -74 -482 -50 -96 -191 -237 -287 -287 -126 -65 -202 -83 -350 -82 -114 0
-140 4 -214 28 l-84 28 479 479 479 479 17 -40 c10 -23 25 -78 34 -123z"/>
<path d="M900 2695 l-75 -75 58 -57 57 -58 77 77 78 78 -55 55 c-30 30 -57 55
-60 55 -3 0 -39 -34 -80 -75z"/>
<path d="M2320 2715 l-55 -55 78 -78 77 -77 57 58 58 57 -75 75 c-41 41 -77
75 -80 75 -3 0 -30 -25 -60 -55z"/>
<path d="M560 1920 l0 -80 80 0 80 0 0 80 0 80 -80 0 -80 0 0 -80z"/>
<path d="M2640 1920 l0 -80 80 0 80 0 0 80 0 80 -80 0 -80 0 0 -80z"/>
<path d="M880 1275 l-55 -55 78 -78 77 -77 57 58 58 57 -75 75 c-41 41 -77 75
-80 75 -3 0 -30 -25 -60 -55z"/>
<path d="M2340 1255 l-75 -75 58 -57 57 -58 77 77 78 78 -55 55 c-30 30 -57
55 -60 55 -3 0 -39 -34 -80 -75z"/>
<path d="M1600 880 l0 -80 80 0 80 0 0 80 0 80 -80 0 -80 0 0 -80z"/>
<path d="M400 560 l0 -80 160 0 160 0 0 80 0 80 -160 0 -160 0 0 -80z"/>
<path d="M2640 560 l0 -80 160 0 160 0 0 80 0 80 -160 0 -160 0 0 -80z"/>
</g>
</svg>
