<?xml version="1.0" standalone="no"?>
<!DOCTYPE svg PUBLIC "-//W3C//DTD SVG 20010904//EN"
 "http://www.w3.org/TR/2001/REC-SVG-20010904/DTD/svg10.dtd">
<svg version="1.0" xmlns="http://www.w3.org/2000/svg"
 width="512.000000pt" height="512.000000pt" viewBox="0 0 512.000000 512.000000"
 preserveAspectRatio="xMidYMid meet">

<g transform="translate(0.000000,512.000000) scale(0.100000,-0.100000)"
fill="#ffffff" stroke="none">
<path d="M1354 5051 c-42 -19 -86 -68 -99 -110 -4 -12 -8 -235 -9 -495 l-2
-471 -63 -5 c-40 -3 -65 -10 -71 -20 -6 -9 -10 -203 -10 -477 l0 -462 350
-360 c193 -198 350 -362 350 -365 0 -3 -9 -6 -20 -6 -11 0 -29 -9 -40 -20 -20
-20 -20 -33 -20 -1095 0 -1062 0 -1075 20 -1095 25 -25 55 -25 80 0 20 20 20
33 20 1055 l0 1035 695 0 695 0 0 -1035 c0 -1022 0 -1035 20 -1055 25 -25 55
-25 80 0 20 20 20 33 20 1095 0 1062 0 1075 -20 1095 -15 15 -33 20 -71 20
-28 0 -49 4 -47 9 2 4 159 169 351 365 l347 357 0 463 c0 532 7 493 -95 498
l-60 3 -5 485 c-4 435 -7 488 -22 517 -69 126 -264 120 -327 -9 -20 -43 -21
-56 -21 -521 l0 -477 -63 0 c-104 0 -97 34 -97 -474 l0 -438 -52 -62 c-29 -35
-178 -210 -331 -389 l-278 -327 -54 0 -54 0 -330 388 -330 387 -1 441 c0 512
8 474 -103 474 l-67 0 0 473 c0 438 -2 475 -19 512 -47 102 -148 141 -247 96z
m126 -121 c19 -19 20 -33 20 -490 l0 -471 -67 3 -68 3 -3 461 c-2 454 -2 461
19 488 25 32 70 35 99 6z m2134 1 c15 -17 17 -61 17 -487 l1 -469 -66 -3 -66
-3 0 472 c0 426 2 474 17 491 21 24 75 23 97 -1z m-1944 -1490 c0 -418 0 -418
22 -447 13 -16 152 -181 310 -367 159 -186 288 -340 288 -342 0 -3 -71 -5
-158 -5 l-159 0 -376 388 -376 387 -1 403 0 402 225 0 225 0 0 -419z m2120 17
l0 -401 -132 -136 c-73 -75 -243 -250 -378 -389 l-244 -252 -158 0 c-87 0
-158 2 -158 5 0 3 129 157 288 342 158 186 297 351 310 367 22 29 22 29 22
447 l0 419 225 0 225 0 0 -402z"/>
<path d="M441 4643 c-20 -17 -21 -29 -23 -208 l-3 -190 -195 -5 -194 -5 -16
-27 c-11 -21 -12 -32 -4 -45 23 -37 54 -43 237 -43 l177 0 0 -188 c0 -170 2
-191 18 -205 24 -22 55 -21 75 1 15 16 17 46 17 205 l0 186 189 3 c169 3 191
5 210 22 25 23 27 44 5 74 -15 21 -20 22 -210 22 l-194 0 0 194 c0 190 -1 195
-22 210 -29 20 -41 20 -67 -1z"/>
<path d="M4631 4312 c-378 -2 -427 -4 -443 -19 -22 -20 -23 -42 -2 -71 l15
-22 444 0 445 0 17 26 c15 23 15 29 2 52 -8 14 -23 28 -34 31 -11 3 -211 5
-444 3z"/>
</g>
</svg>
